HIERARCHY
ROOT RootJoint
{
    OFFSET   0.000000   0.000000   0.000000
    CHANNELS 6 Xposition Yposition Zposition Xrotation Yrotation Zrotation
    JOINT pelvis_lowerback
    {
        OFFSET   0.000000   0.093605   0.000000
        CHANNELS 3 Xrotation Yrotation Zrotation
        JOINT lowerback_torso
        {
            OFFSET   0.000000   0.100000   0.000000
            CHANNELS 3 Xrotation Yrotation Zrotation
            JOINT torso_head
            {
                OFFSET   0.000000   0.282350   0.000000
                CHANNELS 3 Xrotation Yrotation Zrotation
                End Site
                {
                    OFFSET   0.000000   0.192650   0.000000
                }
            }
            JOINT rTorso_Clavicle
            {
                OFFSET  -0.001000   0.157500   0.000000
                CHANNELS 3 Xrotation Yrotation Zrotation
                JOINT rShoulder
                {
                    OFFSET  -0.117647   0.000000   0.000000
                    CHANNELS 3 Xrotation Yrotation Zrotation
                    JOINT rElbow
                    {
                        OFFSET  -0.245000   0.000000   0.000000
                        CHANNELS 3 Xrotation Yrotation Zrotation
                        JOINT rWrist
                        {
                            OFFSET  -0.240000   0.000000   0.000000
                            CHANNELS 3 Xrotation Yrotation Zrotation
                            End Site
                            {
                                OFFSET  -0.116353  -0.002500   0.000000
                            }
                        }
                    }
                }
            }
            JOINT lTorso_Clavicle
            {
                OFFSET   0.001000   0.157500   0.000000
                CHANNELS 3 Xrotation Yrotation Zrotation
                JOINT lShoulder
                {
                    OFFSET   0.117647   0.000000   0.000000
                    CHANNELS 3 Xrotation Yrotation Zrotation
                    JOINT lElbow
                    {
                        OFFSET   0.245000   0.000000   0.000000
                        CHANNELS 3 Xrotation Yrotation Zrotation
                        JOINT lWrist
                        {
                            OFFSET   0.240000   0.000000   0.000000
                            CHANNELS 3 Xrotation Yrotation Zrotation
                            End Site
                            {
                                OFFSET   0.116353  -0.002500   0.000000
                            }
                        }
                    }
                }
            }
        }
    }
    JOINT rHip
    {
        OFFSET  -0.100000  -0.051395   0.000000
        CHANNELS 3 Xrotation Yrotation Zrotation
        JOINT rKnee
        {
            OFFSET   0.000000  -0.410000   0.000000
            CHANNELS 3 Xrotation Yrotation Zrotation
            JOINT rAnkle
            {
                OFFSET   0.000000  -0.390000   0.000000
                CHANNELS 3 Xrotation Yrotation Zrotation
                JOINT rToeJoint
                {
                    OFFSET   0.000000  -0.050000   0.130000
                    CHANNELS 3 Xrotation Yrotation Zrotation
                    End Site
                    {
                        OFFSET  -0.010000   0.002000   0.060000
                    }
                }
            }
        }
    }
    JOINT lHip
    {
        OFFSET   0.100000  -0.051395   0.000000
        CHANNELS 3 Xrotation Yrotation Zrotation
        JOINT lKnee
        {
            OFFSET   0.000000  -0.410000   0.000000
            CHANNELS 3 Xrotation Yrotation Zrotation
            JOINT lAnkle
            {
                OFFSET   0.000000  -0.390000   0.000000
                CHANNELS 3 Xrotation Yrotation Zrotation
                JOINT lToeJoint
                {
                    OFFSET   0.000000  -0.050000   0.130000
                    CHANNELS 3 Xrotation Yrotation Zrotation
                    End Site
                    {
                        OFFSET   0.010000   0.002000   0.060000
                    }
                }
            }
        }
    }
}
MOTION
Frames: 10
Frame Time:   0.008333
 -2.376719   0.925631   3.975860   0.000000   0.000000   0.000000   0.000000   0.000000   0.000000   0.000000   0.000000   0.000000   0.000000   0.000000   0.000000   0.000000   0.000000   0.000000   0.000000   0.000000   0.000000   0.000000   0.000000   0.000000   0.000000   0.000000   0.000000   0.000000   0.000000   0.000000   0.000000   0.000000   0.000000   0.000000   0.000000   0.000000   0.000000   0.000000   0.000000   0.000000   0.000000   0.000000   0.000000   0.000000   0.000000   0.000000   0.000000   0.000000   0.000000   0.000000   0.000000   0.000000   0.000000   0.000000   0.000000   0.000000   0.000000   0.000000   0.000000   0.000000   0.000000   0.000000   0.000000
 -2.376807   0.925928   3.975768  -0.655191  -0.781088  -0.066267   0.764723   0.392584  -0.158775   0.032494  -0.383693   0.222521   0.051503  -0.729140   0.349709  -0.005681  -0.093758   0.257786   0.156861   0.866133   2.023543   0.056184   2.798144  -0.008411   0.187255  -1.519567  -2.896828   0.368294   0.646261   0.350417   0.880184   0.554645  -2.333977   0.014701  -0.853453   0.010376   0.281015   0.028214   2.161880   0.025380  -0.167595   0.309676   2.265152  -0.005290  -0.018625  -1.792553  -0.747903  -0.651717   0.112931   0.000409  -0.001676  -0.044922   0.681561  -0.181566   2.473526   0.005301  -0.002295   2.590031   0.692287  -0.316470  -0.680615  -0.003161  -0.003569
 -2.376918   0.928777   3.975386  -1.408935  -1.593623   0.255405   1.530204   0.748538  -0.674751   0.151215  -0.704625   0.358649   0.142107  -1.467867   0.685632  -0.020861   0.007211   1.397440   0.249676   1.901118   4.575113   0.134460   5.565293  -0.013168   0.388677  -2.009125  -5.097404   0.729057   1.277622  -0.013671   1.732424   1.059333  -5.034234   0.033510  -1.656503   0.017652   0.609126  -0.075333   3.694350   0.228232  -0.371665   0.408096   4.691106  -0.015554  -0.035482  -3.462290  -1.446648  -1.287509   0.219351   0.000508  -0.002928  -0.188736   1.374828  -0.604133   4.231015   0.005639  -0.003995   3.336976   1.449258  -0.201305  -4.364389   0.000338  -0.023163
 -2.376988   0.932607   3.975147  -2.219396  -2.610960   0.551925   2.240382   1.212680  -1.074160   0.285668  -0.874783   0.496665   0.239191  -2.161563   0.977105  -0.040218   0.236022   2.940901   0.278132   2.975692   7.338040   0.209453   8.194389  -0.012637   0.597203  -2.077920  -6.370906   1.069406   1.865385  -0.818599   2.550930   1.488064  -7.922045   0.050552  -2.408241   0.021805   0.932708  -0.222636   4.400557   0.622817  -0.541370   0.688343   7.045755  -0.028859  -0.050492  -5.026532  -2.077427  -1.897371   0.312184   0.000388  -0.003790  -0.436485   1.974225  -0.949522   6.258968   0.004667  -0.011027   4.783409   2.106496  -0.226921  -9.029427   0.005444  -0.027616
 -2.376927   0.936609   3.975230  -3.018786  -3.700924   0.809905   2.842209   1.723974  -1.356945   0.384886  -0.947424   0.676034   0.331268  -2.809630   1.246178  -0.060206   0.517639   4.683976   0.250404   4.028081  10.155140   0.271029  10.667128  -0.007602   0.802149  -1.981230  -6.990366   1.390119   2.422539  -1.868486   3.336565   1.850947 -10.851529   0.063548  -3.110746   0.023346   1.246013  -0.393765   4.528964   1.164543  -0.691878   1.115808   9.291019  -0.042805  -0.060940  -6.494355  -2.648573  -2.482188   0.380243   0.000196  -0.004071  -0.701195   2.593187  -1.274840   8.433874   0.003610  -0.018310   6.501609   2.793566  -0.379988 -14.114757   0.008301  -0.030765
 -2.376721   0.940355   3.975577  -3.779414  -4.765035   1.063910   3.342611   2.242553  -1.557508   0.434971  -0.967906   0.897315   0.410994  -3.414957   1.499369  -0.075857   0.804418   6.516426   0.177163   5.022244  12.945076   0.316149  12.978731  -0.000199   0.991813  -1.844834  -7.186253   1.693326   2.956095  -3.032462   4.089110   2.158734 -13.729448   0.071976  -3.764972   0.023028   1.544812  -0.567453   4.308589   1.809712  -0.822829   1.632326  11.429385  -0.055914  -0.065888  -7.870021  -3.166395  -3.042881   0.432828   0.000007  -0.003997  -0.994791   3.199973  -1.607845  10.540627   0.002487  -0.023688   8.293842   3.473651  -0.595136 -18.505473   0.010671  -0.032221
 -2.376359   0.943674   3.976114  -4.494039  -5.801141   1.352001   3.758088   2.768670  -1.705160   0.443941  -0.946263   1.148199   0.478106  -3.979665   1.737079  -0.082968   1.078807   8.372316   0.068778   5.946520  15.661887   0.345521  15.133890   0.007768   1.161992  -1.722530  -7.116847   1.983141   3.475702  -4.232861   4.809311   2.424206 -16.503920   0.076176  -4.371385   0.021507   1.826876  -0.724520   3.894094   2.521827  -0.929034   2.186726  13.463951  -0.067483  -0.066536  -9.157900  -3.635684  -3.579260   0.478472  -0.000170  -0.003784  -1.302658   3.755704  -1.979737  12.556527   0.001181  -0.028091  10.035332   4.102597  -0.826717 -21.929791   0.012727  -0.029138
 -2.375664   0.945542   3.975373  -4.763379  -6.572693   2.150699   3.959999   3.130877  -2.316876   0.529695  -0.833466   1.280834   0.398617  -4.300540   1.883652   0.082904   1.404492   9.745822  -0.068011   6.871941  18.063145   0.356055  17.313973   0.003500   1.253994  -1.860851  -5.910704   2.351852   3.790967  -4.878940   5.665796   2.533643 -19.017910   0.067637  -4.643129   0.019600   1.872592  -1.094475   2.837962   3.362152  -0.888936   2.160422  13.719998  -0.056361  -0.054105 -10.167109  -3.993359  -4.330064   0.519942  -0.000197  -0.003388  -2.941718   3.661293  -2.847434  15.970393  -0.002142  -0.051960   8.852174   4.387631  -0.455660 -20.389956   0.005536  -0.034995
 -2.374888   0.946155   3.973930  -4.971375  -7.519501   3.032122   4.300488   3.617125  -2.972747   0.678915  -0.593644   1.315294   0.323901  -4.586682   2.001085   0.184186   1.832030  10.798920  -0.258420   7.820772  20.153490   0.350514  19.385049  -0.004518   1.372787  -1.868261  -4.830799   2.696105   4.067108  -5.278869   6.467180   2.604870 -21.221887   0.059061  -4.889093   0.018031   1.908931  -1.392255   1.943160   4.245260  -0.805951   1.981275  13.727496  -0.045099  -0.043378 -11.127351  -4.309630  -5.038060   0.541073  -0.000189  -0.002912  -4.818434   3.606490  -3.739771  19.197474  -0.009501  -0.074528   7.731716   4.639165  -0.102502 -19.058779  -0.000167  -0.040541
 -2.374128   0.945637   3.972096  -5.147539  -8.555114   3.915380   4.735551   4.161330  -3.625522   0.887100  -0.268116   1.302942   0.272541  -4.851900   2.107445   0.219476   2.324938  11.614021  -0.498369   8.771863  21.991628   0.335672  21.348355  -0.013424   1.515102  -1.725195  -4.023232   3.019118   4.329219  -5.519455   7.217277   2.655182 -23.181043   0.051042  -5.114837   0.016611   1.939039  -1.643977   1.274368   5.163335  -0.726543   1.753010  13.704661  -0.035826  -0.034635 -12.029481  -4.595281  -5.704333   0.558819  -0.000177  -0.002508  -6.809615   3.588177  -4.550206  22.141330  -0.019368  -0.091501   6.681909   4.866124   0.232207 -17.842984  -0.005257  -0.044991
